<svg xmlns="http://www.w3.org/2000/svg" xmlns:xlink="http://www.w3.org/1999/xlink" width="285.5" height="63.21" viewBox="0 0 285.5 63.21"><defs><clipPath id="a" transform="translate(-369.25 -480.39)"><rect x="369.25" y="480.4" width="285.5" height="63.21" style="fill:none"/></clipPath></defs><title>Northrop Grumman logo - Brandlogos.net</title><g style="clip-path:url(#a)"><path d="M403.33,539.47a15.44,15.44,0,0,1,0-20.65,14.27,14.27,0,0,1,22.34,2.51L420,524.44a4.22,4.22,0,0,0-.85-1.2,7.46,7.46,0,0,0-5.8-2.55,5.82,5.82,0,0,0-5.23,2.72,10.75,10.75,0,0,0-1.49,6,9.12,9.12,0,0,0,1.77,5.9,6.74,6.74,0,0,0,5.59,2.37,6.32,6.32,0,0,0,3.89-1.34,4.85,4.85,0,0,0,2.12-3.47H413.8V527.2h13.57v1.49c0,4.59-1.13,8.2-3.43,10.82s-5.87,4.1-10.43,4.1a13.5,13.5,0,0,1-10.18-4.14" transform="translate(-369.25 -480.39)" style="fill:#034694"/><path d="M431.57,515.53h10.78a9.84,9.84,0,0,1,6.57,2.19,8,8,0,0,1,2.69,6.29c0,3.75-1.56,6.22-4.66,7.39l7.24,11.21h-8.45l-5.69-9.55h-1.41v9.55h-7.07Zm9.19,12.2c2.44,0,3.64-1.13,3.64-3.39s-1.17-3.4-3.57-3.4H438.5v6.79Z" transform="translate(-369.25 -480.39)" style="fill:#034694"/><path d="M460.21,541a8.78,8.78,0,0,1-3.64-7.39v-18.1h7.07v16.62q0,4.88,4.88,4.88a5,5,0,0,0,3.46-1.17,4.37,4.37,0,0,0,1.35-3.36v-17h7.14v17.32a9.66,9.66,0,0,1-3.54,8,15.47,15.47,0,0,1-16.72.18" transform="translate(-369.25 -480.39)" style="fill:#034694"/><path d="M569.16,515.53h8.08l10,27.08h-7.63l-1.84-5h-9.37l-1.8,5H559.1ZM576,532.15l-2.86-8.27-2.9,8.27Z" transform="translate(-369.25 -480.39)" style="fill:#034694"/><polygon points="221.72 35.14 228.79 35.14 241.45 51.19 241.45 35.14 248.31 35.14 248.31 62.22 241.24 62.22 228.79 46.06 228.79 62.22 221.72 62.22 221.72 35.14" style="fill:#034694"/><polygon points="132.23 48.98 141.17 35.14 141.18 35.14 148.23 35.14 148.23 62.22 141.18 62.22 141.18 46.33 141.17 46.33 134.13 57.22 130.38 57.22 123.28 46.33 123.3 46.33 123.3 62.22 116.22 62.22 116.22 35.14 123.3 35.14 132.23 48.98" style="fill:#034694"/><polygon points="170.04 48.98 178.99 35.14 179 35.14 186.05 35.14 186.05 62.22 179 62.22 179 46.33 178.99 46.33 171.95 57.22 168.2 57.22 161.1 46.33 161.12 46.33 161.12 62.22 154.04 62.22 154.04 35.14 161.12 35.14 170.04 48.98" style="fill:#034694"/><polygon points="0 0.99 7.07 0.99 19.73 17.04 19.73 0.99 26.59 0.99 26.59 28.07 19.52 28.07 7.07 11.91 7.07 28.07 0 28.07 0 0.99" style="fill:#034694"/><path d="M403.58,505.32a13.92,13.92,0,0,1-4.21-10.43,13.78,13.78,0,0,1,4.39-10.5,15.87,15.87,0,0,1,21.21.14,13.41,13.41,0,0,1,4.28,10.11,14.33,14.33,0,0,1-4.35,10.71,14.81,14.81,0,0,1-10.61,4.1,14.61,14.61,0,0,1-10.71-4.14m16.33-4.74a8,8,0,0,0,2.19-5.8,7.49,7.49,0,0,0-2.23-5.51,8.07,8.07,0,0,0-11.17,0,7.84,7.84,0,0,0-2.19,5.69,7.73,7.73,0,0,0,2.16,5.66,8.21,8.21,0,0,0,11.24-.07" transform="translate(-369.25 -480.39)" style="fill:#034694"/><path d="M433.09,481.38h10.78a9.84,9.84,0,0,1,6.57,2.19,8,8,0,0,1,2.69,6.29c0,3.75-1.56,6.22-4.67,7.39l7.25,11.21h-8.45l-5.69-9.55h-1.41v9.55h-7.07Zm9.19,12.2c2.44,0,3.64-1.13,3.64-3.39s-1.17-3.4-3.57-3.4H440v6.79Z" transform="translate(-369.25 -480.39)" style="fill:#034694"/><polygon points="92.94 7.46 87.35 7.46 87.35 1.02 105.88 1.02 105.88 7.46 100.29 7.46 100.29 28.11 92.94 28.11 92.94 7.46" style="fill:#034694"/><polygon points="110.33 0.96 117.41 0.96 117.41 11.14 127.3 11.14 127.3 0.96 134.38 0.96 134.38 28.04 127.3 28.04 127.3 17.04 117.41 17.04 117.41 28.04 110.33 28.04 110.33 0.96" style="fill:#034694"/><path d="M508.9,481.38h10.78a9.84,9.84,0,0,1,6.57,2.19,8,8,0,0,1,2.69,6.29c0,3.75-1.55,6.22-4.67,7.39l7.25,11.21h-8.45l-5.69-9.55H516v9.55H508.9Zm9.19,12.2c2.44,0,3.64-1.13,3.64-3.39s-1.17-3.4-3.57-3.4h-2.33v6.79Z" transform="translate(-369.25 -480.39)" style="fill:#034694"/><path d="M536.75,505.32a13.92,13.92,0,0,1-4.21-10.43,13.78,13.78,0,0,1,4.39-10.5,14.94,14.94,0,0,1,10.57-4,14.79,14.79,0,0,1,10.64,4.14,13.41,13.41,0,0,1,4.28,10.11,14.33,14.33,0,0,1-4.35,10.71,14.81,14.81,0,0,1-10.61,4.1,14.61,14.61,0,0,1-10.71-4.14m16.33-4.74a8,8,0,0,0,2.19-5.8,7.48,7.48,0,0,0-2.23-5.51,8.07,8.07,0,0,0-11.17,0,7.84,7.84,0,0,0-2.19,5.69,7.73,7.73,0,0,0,2.16,5.66,8.21,8.21,0,0,0,11.24-.07" transform="translate(-369.25 -480.39)" style="fill:#034694"/><path d="M566.83,481.38h12.09a7.84,7.84,0,0,1,6.26,2.62,9.14,9.14,0,0,1,2.26,6.47,8.41,8.41,0,0,1-2.26,6.15,7.94,7.94,0,0,1-6,2.4H573.9v9.44h-7.07Zm9.41,12.45c2.79,0,4.17-1.2,4.17-3.64s-1.34-3.47-4.1-3.47h-2.55v7.11Z" transform="translate(-369.25 -480.39)" style="fill:#034694"/><polygon points="221.72 0.99 221.72 8.06 278.43 8.06 278.43 62.22 285.5 62.22 285.5 0.99 221.72 0.99" style="fill:#034694"/></g></svg>