<?xml version="1.0" encoding="UTF-8"?>
<svg id="Layer_1" xmlns="http://www.w3.org/2000/svg" version="1.1" viewBox="0 0 72 72">
  <!-- Generator: Adobe Illustrator 30.0.0, SVG Export Plug-In . SVG Version: 2.1.1 Build 123)  -->
  <defs>
    <style>
      .st0 {
        fill: #fff;
        fill-rule: evenodd;
      }
    </style>
  </defs>
  <path class="st0" d="M64,0H8C3.58,0,0,3.58,0,8v56c0,4.42,3.58,8,8,8h56c4.42,0,8-3.58,8-8V8c0-4.42-3.58-8-8-8ZM21.77,62h-10.74V27.33h10.74v34.67ZM16.35,22.79c-3.51,0-6.35-2.86-6.35-6.39s2.84-6.4,6.35-6.4,6.35,2.86,6.35,6.4-2.84,6.39-6.35,6.39ZM62,62h-10.68v-18.2c0-4.99-1.9-7.78-5.85-7.78-4.3,0-6.54,2.91-6.54,7.78v18.2h-10.3V27.33h10.3v4.67s3.1-5.73,10.45-5.73,12.62,4.49,12.62,13.78v21.95Z"/>
</svg>